# xmcd
#
# Track frame offsets: 
#        150
#        51060
#        71281
#        97160
#        126773
#        157570
#        206090
#        237966
#
# Disc length: 3613 seconds
#
# Revision: 0
# Processed by: cddbd v1.5.2PL0 Copyright (c) Steve Scherf et al.
# Submitted via: ExactAudioCopyFreeDBPlugin 1.0
#
DISCID=630e1b08
DTITLE=Ralph de Jongh - Breath Of Live
DYEAR=2017
DGENRE=Rock
TTITLE0=Feel Me
TTITLE1=Girl
TTITLE2=Let The Tears Surface
TTITLE3=Keeper Of The Key
TTITLE4=Misty Train
TTITLE5=Harry
TTITLE6=Love Is Not A Friend
TTITLE7=Man
EXTD=
EXTT0=
EXTT1=
EXTT2=
EXTT3=
EXTT4=
EXTT5=
EXTT6=
EXTT7=
PLAYORDER=
